<svg width="248" height="269" viewBox="0 0 248 269" fill="none" xmlns="http://www.w3.org/2000/svg">
<ellipse cx="123.547" cy="123.786" rx="123.547" ry="123.006" fill="#8428F8"/>
<mask id="mask0_202_171" style="mask-type:alpha" maskUnits="userSpaceOnUse" x="0" y="0" width="248" height="247">
<ellipse cx="123.547" cy="123.786" rx="123.547" ry="123.006" fill="#8428F8"/>
</mask>
<g mask="url(#mask0_202_171)">
<path fill-rule="evenodd" clip-rule="evenodd" d="M123.756 70.9371C156.758 70.9371 183.513 103.074 183.513 142.716L183.514 150.62C189.569 151.841 194.184 158.167 194.184 165.788V183.733C194.184 191.491 189.402 197.908 183.186 198.962C180.981 224.348 167.76 245.799 149.367 256.295L149.366 279.866H153.634C196.066 279.866 230.465 321.185 230.465 372.154V383.69H17.0466V372.154C17.0466 321.185 51.4448 279.866 93.8771 279.866H98.1455L98.1454 256.296C79.7515 245.8 66.5298 224.349 64.3242 198.962C58.1091 197.908 53.3277 191.491 53.3277 183.733V165.788C53.3277 158.167 57.9425 151.84 63.9988 150.62L63.9986 142.716C63.9986 103.074 90.7527 70.9371 123.756 70.9371Z" fill="#D4A181"/>
</g>
<path fill-rule="evenodd" clip-rule="evenodd" d="M110.95 191.424C110.95 197.087 116.683 201.678 123.756 201.678C130.828 201.678 136.561 197.087 136.561 191.424" fill="black" fill-opacity="0.16"/>
<mask id="mask1_202_171" style="mask-type:alpha" maskUnits="userSpaceOnUse" x="103" y="213" width="41" height="25">
<path fill-rule="evenodd" clip-rule="evenodd" d="M103.607 215.942C104.736 228.108 113.326 237.568 123.756 237.568C134.218 237.568 142.829 228.05 143.915 215.829C144.002 214.845 143.088 213.214 141.942 213.214C126.049 213.214 113.872 213.214 105.708 213.214C104.555 213.214 103.494 214.725 103.607 215.942Z" fill="white"/>
</mask>
<g mask="url(#mask1_202_171)">
<path fill-rule="evenodd" clip-rule="evenodd" d="M103.607 215.942C104.736 228.108 113.326 237.568 123.756 237.568C134.218 237.568 142.829 228.05 143.915 215.829C144.002 214.845 143.088 213.214 141.942 213.214C126.049 213.214 113.872 213.214 105.708 213.214C104.555 213.214 103.494 214.725 103.607 215.942Z" fill="black" fill-opacity="0.7"/>
<path fill-rule="evenodd" clip-rule="evenodd" d="M113.085 199.115H135.494C138.44 199.115 140.829 201.984 140.829 205.524V213.214C140.829 216.754 138.44 219.623 135.494 219.623H113.085C110.138 219.623 107.749 216.754 107.749 213.214V205.524C107.749 201.984 110.138 199.115 113.085 199.115Z" fill="white"/>
<path fill-rule="evenodd" clip-rule="evenodd" d="M129.091 227.314C135.574 227.314 140.829 233.626 140.829 241.413C140.829 249.2 135.574 255.513 129.091 255.513C127.17 255.513 125.357 254.958 123.756 253.976C122.155 254.958 120.342 255.513 118.42 255.513C111.938 255.513 106.682 249.2 106.682 241.413C106.682 233.626 111.938 227.314 118.42 227.314C120.342 227.314 122.155 227.868 123.756 228.852C125.357 227.868 127.17 227.314 129.091 227.314Z" fill="#FF4F6D"/>
</g>
<path fill-rule="evenodd" clip-rule="evenodd" d="M81.2428 168.925C83.2132 164.056 87.6499 160.661 92.8073 160.661C97.9465 160.661 102.37 164.032 104.351 168.874C104.939 170.312 104.102 171.489 103.257 170.617C100.642 167.916 96.9275 166.229 92.8073 166.229C88.816 166.229 85.2056 167.812 82.6059 170.367C81.6554 171.3 80.6665 170.35 81.2428 168.925Z" fill="black" fill-opacity="0.6"/>
<path fill-rule="evenodd" clip-rule="evenodd" d="M143.134 168.925C145.105 164.056 149.541 160.661 154.699 160.661C159.838 160.661 164.261 164.032 166.242 168.874C166.831 170.312 165.993 171.489 165.149 170.617C162.533 167.916 158.819 166.229 154.699 166.229C150.707 166.229 147.097 167.812 144.497 170.367C143.547 171.3 142.558 170.35 143.134 168.925Z" fill="black" fill-opacity="0.6"/>
<path d="M80.6774 151.892C84.855 144.831 96.3079 140.872 106.173 143.782C107.318 144.12 108.474 143.279 108.755 141.904C109.036 140.529 108.336 139.14 107.191 138.803C95.7342 135.423 82.4721 140.008 77.1982 148.922C76.5154 150.076 76.7407 151.677 77.7015 152.497C78.6623 153.317 79.9946 153.046 80.6774 151.892Z" fill="black" fill-opacity="0.6"/>
<path d="M166.834 151.892C162.656 144.831 151.204 140.872 141.338 143.782C140.194 144.12 139.038 143.279 138.757 141.904C138.476 140.529 139.176 139.14 140.32 138.803C151.777 135.423 165.039 140.008 170.313 148.922C170.996 150.076 170.771 151.677 169.81 152.497C168.849 153.317 167.517 153.046 166.834 151.892Z" fill="black" fill-opacity="0.6"/>
<mask id="mask2_202_171" style="mask-type:alpha" maskUnits="userSpaceOnUse" x="35" y="47" width="168" height="222">
<path fill-rule="evenodd" clip-rule="evenodd" d="M123.756 47.8652C163.831 47.8652 196.933 83.7247 202.037 130.188C202.319 132.75 202.536 141.892 202.69 157.616C202.711 157.75 202.72 157.855 202.72 157.937V227.314C202.72 249.967 187.432 268.33 168.573 268.33H149.366V256.296C168.073 245.621 181.43 223.615 183.29 197.663C189.455 196.554 194.184 190.166 194.184 182.452V165.788C194.184 163.845 193.883 161.319 193.336 158.614C174.248 151.713 155.448 130.787 144.504 101.262C144.213 100.476 143.929 99.6896 143.653 98.9025L143.244 97.7224L143.008 98.4648C138.058 113.766 128.927 124.9 115.616 131.866C120.815 124.244 125.243 115.364 128.9 105.227C120.388 116.13 109.321 126.683 96.3757 135.661C83.1752 144.815 69.7709 151.119 57.4576 154.475C54.9183 157.286 53.3277 161.314 53.3277 165.788V182.452C53.3277 190.166 58.0558 196.554 64.2211 197.663C66.0813 223.615 79.4385 245.621 98.1454 256.296V268.33H53.3277C48.613 268.33 44.7909 263.739 44.7909 258.076L44.7916 155.971C43.0027 155.788 41.3318 155.385 40.3662 154.603C36.9958 151.872 35.1871 146.627 35.1871 140.794C35.1871 131.945 39.9647 124.772 45.858 124.772C53.1812 80.9712 85.2498 47.8652 123.756 47.8652Z" fill="white"/>
</mask>
<g mask="url(#mask2_202_171)">
<path fill-rule="evenodd" clip-rule="evenodd" d="M123.756 47.8652C163.831 47.8652 196.933 83.7247 202.037 130.188C202.319 132.75 202.536 141.892 202.69 157.616C202.711 157.75 202.72 157.855 202.72 157.937V227.314C202.72 249.967 187.432 268.33 168.573 268.33H149.366V256.296C168.073 245.621 181.43 223.615 183.29 197.663C189.455 196.554 194.184 190.166 194.184 182.452V165.788C194.184 163.845 193.883 161.319 193.336 158.614C174.248 151.713 155.448 130.787 144.504 101.262C144.213 100.476 143.929 99.6896 143.653 98.9025L143.244 97.7224L143.008 98.4648C138.058 113.766 128.927 124.9 115.616 131.866C120.815 124.244 125.243 115.364 128.9 105.227C120.388 116.13 109.321 126.683 96.3757 135.661C83.1752 144.815 69.7709 151.119 57.4576 154.475C54.9183 157.286 53.3277 161.314 53.3277 165.788V182.452C53.3277 190.166 58.0558 196.554 64.2211 197.663C66.0813 223.615 79.4385 245.621 98.1454 256.296V268.33H53.3277C48.613 268.33 44.7909 263.739 44.7909 258.076L44.7916 155.971C43.0027 155.788 41.3318 155.385 40.3662 154.603C36.9958 151.872 35.1871 146.627 35.1871 140.794C35.1871 131.945 39.9647 124.772 45.858 124.772C53.1812 80.9712 85.2498 47.8652 123.756 47.8652Z" fill="#100D0F"/>
</g>
<g opacity="0.44">
<path opacity="0.44" fill-rule="evenodd" clip-rule="evenodd" d="M123.756 47.8652C167.367 47.8652 202.72 90.3316 202.72 142.716V160.855C180.627 158.347 157.243 135.63 144.504 101.262C144.068 100.083 143.648 98.9029 143.244 97.7212C138.351 113.405 129.142 124.787 115.616 131.866C120.815 124.244 125.243 115.364 128.9 105.227C120.388 116.13 109.321 126.683 96.3757 135.661C79.6616 147.252 62.6208 154.272 47.8815 156.528C47.2265 156.717 46.55 156.816 45.858 156.816C45.8392 156.816 45.8204 156.816 45.8015 156.816C45.4634 156.859 45.1265 156.898 44.7909 156.935L44.7904 156.737C39.3983 155.933 35.1871 149.102 35.1871 140.794C35.1871 131.945 39.9647 124.772 45.858 124.772C45.9735 124.772 46.0885 124.774 46.2031 124.78C53.1809 80.9715 85.2496 47.8652 123.756 47.8652Z" fill="#100D0F"/>
</g>
</svg>
